Coordinates
version=1
nRows=12
nColumns=42
inDegrees=yes

Units are S.I. units (second, meters, Newtons, ...)
If the header above contains a line with 'inDegrees', this indicates whether rotational values are in degrees (yes) or radians (no).

endheader
time	pelvis_tilt	pelvis_list	pelvis_rotation	pelvis_tx	pelvis_ty	pelvis_tz	hip_flexion_r	hip_adduction_r	hip_rotation_r	knee_angle_r	knee_adduction_r	knee_angle_r_beta	ankle_angle_r	subtalar_angle_r	mtp_angle_r	hip_flexion_l	hip_adduction_l	hip_rotation_l	knee_angle_l	knee_adduction_l	knee_angle_l_beta	ankle_angle_l	subtalar_angle_l	mtp_angle_l	lumbar_extension	lumbar_bending	lumbar_rotation	arm_flex_r	arm_add_r	arm_rot_r	elbow_flex_r	pro_sup_r	wrist_flex_r	wrist_dev_r	arm_flex_l	arm_add_l	arm_rot_l	elbow_flex_l	pro_sup_l	wrist_flex_l	wrist_dev_l
      0.00000000	      1.17244041	     -3.40860791	      0.01378523	     -1.06812504	      0.94416230	     -0.25839378	     24.20459805	      3.18516138	    -10.12343921	     15.93344700	     -1.46592174	      0.27809111	     -0.57850063	      1.87900733	     -9.21505374	    -17.33650043	     -3.51449949	      2.72861386	     21.27437550	      2.72377782	      0.37130790	      7.79961885	     -5.09803750	     -9.21505374	    -12.39058738	      4.98310271	      0.78192235	    -13.98517265	    -11.41481195	     -8.19860481	     28.79984045	     90.00000001	      0.00000000	      0.00000000	     13.12893780	    -14.79026192	     21.01043950	     50.26073503	     90.00000001	      0.00000000	      0.00000000
      0.01000000	      1.60662004	     -3.88276477	      0.01359065	     -1.05197645	      0.94519356	     -0.25729682	     23.73266064	      3.88918503	     -9.53982931	     17.72591820	     -1.66940210	      0.30937564	     -0.88575484	      1.32834187	     -9.18043069	    -16.99257219	     -4.16941850	      2.17103837	     24.34422931	      2.80096256	      0.42488696	      5.27640946	     -5.72455939	     -9.18043069	    -12.79281088	      5.71012662	      1.00344607	    -13.84219408	    -11.45592668	     -8.45830451	     28.51664331	     90.00000001	      0.00000000	      0.00000000	     12.92446535	    -14.22657467	     20.23192769	     49.86972558	     90.00000001	      0.00000000	      0.00000000
      0.02000000	      1.87424922	     -4.41363064	      0.00089809	     -1.03604037	      0.94644842	     -0.25603151	     23.27223339	      4.69157167	     -8.66066398	     19.23197932	     -1.75515973	      0.33566136	     -1.27698501	      0.36983234	     -9.15383571	    -16.18919135	     -4.94039847	      1.52808237	     27.73294285	      2.88152996	      0.48403116	      2.33524048	     -6.68241192	     -9.15383571	    -13.03669508	      6.47684863	      1.24442618	    -13.68156983	    -11.45181599	     -8.85096196	     28.31167258	     90.00000001	      0.00000000	      0.00000000	     12.59116669	    -13.60661153	     19.15446026	     49.48908838	     90.00000001	      0.00000000	      0.00000000
      0.03000000	      1.66055192	     -4.88471494	     -0.25496287	     -1.02094385	      0.94750425	     -0.25442637	     22.97749417	      5.58428511	     -5.82447415	     20.10675340	     -1.19892200	      0.35092905	     -2.70917255	     -3.92215752	     -8.98767738	    -14.52614547	     -5.68819481	      0.63751234	     31.54793488	      3.00224804	      0.55061534	     -0.43230435	     -7.61486397	     -8.98767738	    -12.85899363	      7.11986592	      1.71233300	    -13.41322229	    -11.39377785	     -9.45554996	     28.06376424	     90.00000001	      0.00000000	      0.00000000	     12.23151637	    -12.89344379	     17.84590269	     49.07533652	     90.00000001	      0.00000000	      0.00000000
      0.04000000	      2.15055450	     -5.34862924	     -0.15070002	     -1.00529684	      0.94966129	     -0.25321157	     22.01075291	      6.25783361	     -5.35534415	     21.15382046	     -1.21481590	      0.36920382	     -2.37091119	     -4.34624815	     -8.96779006	    -13.58095528	     -6.45088758	     -0.20630756	     35.05582759	      2.76361683	      0.61183961	     -3.54268168	     -8.40274958	     -8.96779006	    -13.36894108	      7.77656499	      1.91115129	    -13.24749762	    -11.38109585	     -9.64370443	     28.14876649	     90.00000001	      0.00000000	      0.00000000	     11.86167943	    -12.39783386	     16.92997999	     48.82653489	     90.00000001	      0.00000000	      0.00000000
      0.05000000	      1.86327161	     -5.79665287	     -0.31006640	     -0.99059777	      0.95110075	     -0.25161579	     21.71504893	      7.04866384	     -3.80809918	     21.82325803	     -0.92724738	      0.38088771	     -2.99000369	     -6.74399336	     -8.83335821	    -11.46707231	     -7.26519473	     -1.14000141	     38.92844698	      2.62520815	      0.67942957	     -6.33427941	     -9.73221383	     -8.83335821	    -13.13420782	      8.35970442	      2.31163109	    -13.01089726	    -11.33136368	     -9.97701575	     28.15857560	     90.00000001	      0.00000000	      0.00000000	     11.38634608	    -11.75406530	     15.52823737	     48.55733347	     90.00000001	      0.00000000	      0.00000000
      0.06000000	      1.99800173	     -6.22682912	     -0.27998109	     -0.97571333	      0.95324742	     -0.25027977	     20.86823797	      7.71189666	     -3.45393709	     22.31172418	     -0.93559015	      0.38941305	     -2.57935239	     -7.13661302	     -8.79444001	     -9.77195804	     -8.06236592	     -2.08987027	     42.46214318	      2.21157848	      0.74110421	     -8.81227134	    -10.91306427	     -8.79444001	    -13.32471153	      8.91578674	      2.60774638	    -12.81920337	    -11.30048780	    -10.12749579	     28.38265259	     90.00000001	      0.00000000	      0.00000000	     10.92265460	    -11.23192304	     14.39962673	     48.40104314	     90.00000001	      0.00000000	      0.00000000
      0.07000000	      1.96678790	     -6.48249388	     -0.23865080	     -0.96135873	      0.95536714	     -0.24906800	     20.09471690	      8.14955950	     -3.14385666	     22.56460672	     -0.89512682	      0.39382668	     -2.07236662	     -7.62586202	     -8.73677592	     -7.73223190	     -8.65534993	     -3.04433894	     45.87186867	      1.61221181	      0.80061514	    -10.75266819	    -12.20255532	     -8.73677592	    -13.36271424	      9.26617405	      2.86539231	    -12.57345336	    -11.24756574	    -10.20936776	     28.64470974	     90.00000001	      0.00000000	      0.00000000	     10.46127561	    -10.76857178	     13.34162579	     48.28191785	     90.00000001	      0.00000000	      0.00000000
      0.08000000	      2.25203095	     -6.62774735	     -0.09790784	     -0.94692221	      0.95809373	     -0.24817585	     18.76970302	      8.39563736	     -3.07969853	     22.45301749	     -0.86099283	      0.39187908	     -1.18973936	     -7.54527498	     -8.71326792	     -6.03625596	     -9.04770339	     -4.19642106	     48.81408438	      0.61941440	      0.85196649	    -12.06133338	    -13.13600681	     -8.71326792	    -13.73139424	      9.50023200	      3.08595260	    -12.33056564	    -11.20563564	    -10.25497634	     29.02902918	     90.00000001	      0.00000000	      0.00000000	     10.00690599	    -10.44384647	     12.66628485	     48.28322650	     90.00000001	      0.00000000	      0.00000000
      0.09000000	      2.05594615	     -6.79900470	     -0.13429381	     -0.93309568	      0.96029293	     -0.24686462	     17.97051265	      8.77911225	     -3.09954635	     22.26020969	     -1.01022628	      0.38851395	     -0.63831437	     -7.39487370	     -8.67421315	     -3.70463774	     -9.53778394	     -5.36182050	     51.64750644	     -0.27024440	      0.90141904	    -13.01591306	    -14.52297879	     -8.67421315	    -13.62854344	      9.69581951	      3.43958113	    -12.06811321	    -11.16196887	    -10.18360643	     29.42170086	     90.00000001	      0.00000000	      0.00000000	      9.49585997	    -10.04942345	     11.61127768	     48.25987981	     90.00000001	      0.00000000	      0.00000000
      0.10000000	      2.18011675	     -6.72251526	      0.02140096	     -0.91922003	      0.96306964	     -0.24611361	     16.62762810	      8.74189191	     -3.17080396	     21.74054849	     -0.97431141	      0.37944415	      0.23076164	     -7.08190107	     -8.65130056	     -1.74539306	     -9.65198407	     -6.53025431	     53.91218053	     -1.41759474	      0.94094506	    -13.01976670	    -15.43974371	     -8.65130056	    -13.83504664	      9.65460154	      3.60614903	    -11.75075953	    -11.10727097	    -10.10977567	     29.85967076	     90.00000001	      0.00000000	      0.00000000	      9.01612344	     -9.85549638	     11.08205434	     48.30082298	     90.00000001	      0.00000000	      0.00000000
      0.11000000	      2.02902717	     -6.65179153	      0.02915525	     -0.90571900	      0.96549029	     -0.24507166	     15.60996417	      8.79732453	     -3.27737382	     21.21889172	     -1.09187592	      0.37033952	      0.94891447	     -6.53460591	     -8.61606927	      0.55411317	     -9.81251709	     -7.88776213	     55.92176670	     -2.59139410	      0.97601895	    -12.74120545	    -16.21681436	     -8.61606927	    -13.77688126	      9.56655030	      3.87737285	    -11.42343661	    -11.08010536	     -9.85462753	     30.33863227	     90.00000001	      0.00000000	      0.00000000	      8.48599368	     -9.63919808	     10.33727214	     48.35677432	     90.00000001	      0.00000000	      0.00000000
